<?xml version="1.0" encoding="UTF-8" standalone="no"?>
<!-- Created with Inkscape (http://www.inkscape.org/) -->

<svg
   xmlns:dc="http://purl.org/dc/elements/1.1/"
   xmlns:cc="http://creativecommons.org/ns#"
   xmlns:rdf="http://www.w3.org/1999/02/22-rdf-syntax-ns#"
   xmlns:svg="http://www.w3.org/2000/svg"
   xmlns="http://www.w3.org/2000/svg"
   xmlns:sodipodi="http://sodipodi.sourceforge.net/DTD/sodipodi-0.dtd"
   xmlns:inkscape="http://www.inkscape.org/namespaces/inkscape"
   id="svg2"
   version="1.1"
   inkscape:version="0.91 r13725"
   xml:space="preserve"
   width="360"
   height="360"
   viewBox="0 0 360 360"
   sodipodi:docname="Attendee-Speaker-Back-PRESS.ai.svg"
   inkscape:export-filename="/Users/ragingwind/Downloads/1.png"
   inkscape:export-xdpi="90"
   inkscape:export-ydpi="90"><metadata
     id="metadata8"><rdf:RDF><cc:Work
         rdf:about=""><dc:format>image/svg+xml</dc:format><dc:type
           rdf:resource="http://purl.org/dc/dcmitype/StillImage" /><dc:title></dc:title></cc:Work></rdf:RDF></metadata><defs
     id="defs6"><clipPath
       clipPathUnits="userSpaceOnUse"
       id="clipPath16"><path
         d="M 0,288 288,288 288,0 0,0 0,288 Z"
         id="path18"
         inkscape:connector-curvature="0" /></clipPath></defs><sodipodi:namedview
     pagecolor="#ffffff"
     bordercolor="#666666"
     borderopacity="1"
     objecttolerance="10"
     gridtolerance="10"
     guidetolerance="10"
     inkscape:pageopacity="0"
     inkscape:pageshadow="2"
     inkscape:window-width="1920"
     inkscape:window-height="1151"
     id="namedview4"
     showgrid="false"
     inkscape:zoom="2.6222222"
     inkscape:cx="109.72798"
     inkscape:cy="166.51407"
     inkscape:window-x="0"
     inkscape:window-y="1"
     inkscape:window-maximized="1"
     inkscape:current-layer="g12" /><g
     id="g10"
     inkscape:groupmode="layer"
     inkscape:label="Attendee-Speaker-Back-PRESS"
     transform="matrix(1.25,0,0,-1.25,0,360)"><g
       id="g12"
       transform="translate(21.966102,-225.76271)"><g
         inkscape:export-ydpi="1024.2224"
         inkscape:export-xdpi="1024.2224"
         id="g3489"
         transform="translate(-33.220945,215.08166)"><path
           inkscape:connector-curvature="0"
           id="path22"
           style="fill:#f2f2f2;fill-opacity:1;fill-rule:nonzero;stroke:none"
           d="m 231.78506,194.08903 c 0,-41.406 -33.566,-74.972 -74.972,-74.972 -41.405,0 -74.971001,33.566 -74.971001,74.972 0,41.406 33.566001,74.972 74.971001,74.972 41.406,0 74.972,-33.566 74.972,-74.972" /><g
           id="g24"
           transform="translate(104.6861,158.2334)"><path
             d="m 0,0 c -2.618,0 -4.741,2.122 -4.741,4.741 l 0,59.828 c 0,2.618 2.123,4.74 4.741,4.74 2.618,0 4.741,-2.122 4.741,-4.74 l 0,-59.828 C 4.741,2.122 2.618,0 0,0"
             style="fill:#267ee3;fill-opacity:1;fill-rule:nonzero;stroke:none"
             id="path26"
             inkscape:connector-curvature="0" /></g><g
           id="g28"
           transform="translate(130.8823,158.2334)"><path
             d="m 0,0 c -2.618,0 -4.741,2.122 -4.741,4.741 l 0,59.828 c 0,2.618 2.123,4.74 4.741,4.74 2.618,0 4.741,-2.122 4.741,-4.74 l 0,-59.828 C 4.741,2.122 2.618,0 0,0"
             style="fill:#267ee3;fill-opacity:1;fill-rule:nonzero;stroke:none"
             id="path30"
             inkscape:connector-curvature="0" /></g><g
           id="g32"
           transform="translate(157.0786,158.2334)"><path
             d="m 0,0 c -2.618,0 -4.741,2.122 -4.741,4.741 l 0,59.828 c 0,2.618 2.123,4.74 4.741,4.74 2.618,0 4.741,-2.122 4.741,-4.74 l 0,-59.828 C 4.741,2.122 2.618,0 0,0"
             style="fill:#0047bb;fill-opacity:1;fill-rule:nonzero;stroke:none"
             id="path34"
             inkscape:connector-curvature="0" /></g><g
           id="g36"
           transform="translate(183.2749,158.2334)"><path
             d="m 0,0 c -2.618,0 -4.741,2.122 -4.741,4.741 l 0,59.828 c 0,2.618 2.123,4.74 4.741,4.74 2.618,0 4.741,-2.122 4.741,-4.74 l 0,-59.828 C 4.741,2.122 2.618,0 0,0"
             style="fill:#0047bb;fill-opacity:1;fill-rule:nonzero;stroke:none"
             id="path38"
             inkscape:connector-curvature="0" /></g><g
           id="g40"
           transform="translate(104.6836,158.2322)"><path
             d="M 0,0 C -0.635,0 -1.28,0.129 -1.899,0.399 -4.297,1.45 -5.39,4.245 -4.34,6.643 l 26.196,59.828 c 1.05,2.399 3.846,3.492 6.244,2.441 2.398,-1.05 3.491,-3.845 2.441,-6.243 L 4.345,2.841 C 3.566,1.061 1.826,0 0,0"
             style="fill:#267ee3;fill-opacity:1;fill-rule:nonzero;stroke:none"
             id="path42"
             inkscape:connector-curvature="0" /></g><g
           id="g44"
           transform="translate(130.8798,158.2322)"><path
             d="M 0,0 C -0.635,0 -1.28,0.129 -1.899,0.399 -4.297,1.45 -5.39,4.245 -4.34,6.643 l 26.196,59.828 c 1.05,2.399 3.845,3.492 6.244,2.441 2.398,-1.05 3.491,-3.845 2.441,-6.243 L 4.345,2.841 C 3.566,1.061 1.826,0 0,0"
             style="fill:#267ee3;fill-opacity:1;fill-rule:nonzero;stroke:none"
             id="path46"
             inkscape:connector-curvature="0" /></g><g
           id="g48"
           transform="translate(157.0761,158.2322)"><path
             d="M 0,0 C -0.635,0 -1.28,0.129 -1.899,0.399 -4.297,1.45 -5.39,4.245 -4.34,6.643 l 26.196,59.828 c 1.05,2.399 3.846,3.492 6.244,2.441 2.398,-1.05 3.491,-3.845 2.441,-6.243 L 4.345,2.841 C 3.566,1.061 1.826,0 0,0"
             style="fill:#267ee3;fill-opacity:1;fill-rule:nonzero;stroke:none"
             id="path50"
             inkscape:connector-curvature="0" /><path
             inkscape:connector-curvature="0"
             id="path3464"
             style="fill:#ff8080;fill-opacity:1;fill-rule:nonzero;stroke:none"
             d="m 26.237289,-4.9216931e-7 c -0.635,0 -1.28,0.12900000216931 -1.899,0.39900000216931 -2.398,1.05100099 -3.491,3.84600099 -2.441,6.24400049 l 26.196,59.828 c 1.05,2.399 3.846,3.492 6.244,2.441 2.398,-1.05 3.491,-3.845 2.441,-6.243 l -26.196,-59.8279995 c -0.779,-1.78 -2.519,-2.84100099216922 -4.345,-2.84100099216922" /></g><g
           id="g52"
           transform="translate(178.4943,162.974)"
           style="fill:#ff8080"><path
             d="m 0,0 c 0,2.64 2.14,4.781 4.781,4.781 2.64,0 4.78,-2.141 4.78,-4.781 0,-2.64 -2.14,-4.781 -4.78,-4.781 C 2.14,-4.781 0,-2.64 0,0"
             style="fill:#ff8080;fill-opacity:1;fill-rule:nonzero;stroke:none"
             id="path54"
             inkscape:connector-curvature="0" /></g><g
           transform="matrix(0.94088077,-0.33873793,0.33873793,0.94088077,229.99729,150.34789)"
           id="g3466"
           style="fill:#ff8080"><path
             inkscape:connector-curvature="0"
             id="path3468"
             style="fill:#ff8080;fill-opacity:1;fill-rule:nonzero;stroke:none"
             d="m -20.429708,1.7412321 c -2.068626,-1.60459067 -5.046714,-1.22908337 -6.651917,0.8403326 l -21.14895,27.2650623 7.118272,6.293713 21.522927,-27.747191 c 1.605204,-2.0694156 1.228294,-5.0473262 -0.840332,-6.6519169"
             sodipodi:nodetypes="csccsc" /></g></g></g></g></svg>